<svg xmlns="http://www.w3.org/2000/svg" width="24" height="24" viewBox="0 0 24 24" fill="none" stroke="currentColor" stroke-width="2" stroke-linecap="round" stroke-linejoin="round">
  <rect x="3" y="12" width="18" height="8" rx="2" fill="#ef4444"/>
  <path d="M3 16v2c0 1.1.9 2 2 2h2c.6 0 1.1-.2 1.5-.6L12 17h8c.6 0 1.1.2 1.5.6.4.4.5 1 .4 1.5v.9c0 .6-.2 1.1-.6 1.5-.4.4-1 .5-1.5.4H17c-1.1 0-2-.9-2-2v-1" fill="none" stroke="currentColor" stroke-width="2"/>
  <circle cx="7" cy="18" r="2" fill="white"/>
  <circle cx="17" cy="18" r="2" fill="white"/>
  <path d="M15 14v-2a1 1 0 0 0-1-1h-4a1 1 0 0 0-1 1v2" fill="none" stroke="currentColor" stroke-width="2"/>
  <circle cx="10" cy="10" r="1" fill="white"/>
  <path d="M10 12h4" stroke="white" stroke-width="2" stroke-linecap="round"/>
</svg>